<svg xmlns="http://www.w3.org/2000/svg" viewBox="0 0 841.9 595.3"><g><circle cx="420.9" cy="296.5" r="45.7" fill="#61dafb"/><path fill="none" stroke="#61dafb" stroke-width="25" d="M520.5 78.1c-57.6-33.2-133.2-33.2-190.8 0-57.6 33.2-99.2 94.6-99.2 163.2s41.6 130 99.2 163.2c57.6 33.2 133.2 33.2 190.8 0 57.6-33.2 99.2-94.6 99.2-163.2s-41.6-130-99.2-163.2z"/><path fill="none" stroke="#61dafb" stroke-width="25" d="M520.5 518.1c-57.6 33.2-133.2 33.2-190.8 0-57.6-33.2-99.2-94.6-99.2-163.2s41.6-130 99.2-163.2c57.6-33.2 133.2-33.2 190.8 0 57.6 33.2 99.2 94.6 99.2 163.2s-41.6 130-99.2 163.2z"/><path fill="none" stroke="#61dafb" stroke-width="25" d="M99.2 163.2c0 68.6 41.6 130 99.2 163.2 57.6 33.2 133.2 33.2 190.8 0 57.6-33.2 99.2-94.6 99.2-163.2s-41.6-130-99.2-163.2c-57.6-33.2-133.2-33.2-190.8 0-57.6 33.2-99.2 94.6-99.2 163.2z"/></g></svg>
