<svg width="100%" height="100%" viewBox="0 0 1440 320" fill="none" xmlns="http://www.w3.org/2000/svg" preserveAspectRatio="none">
  <defs>
    <linearGradient id="bg-gradient" x1="0" y1="0" x2="0" y2="1">
      <stop offset="0%" stop-color="#00e1ff" stop-opacity="0.18"/>
      <stop offset="100%" stop-color="#243b55" stop-opacity="0.12"/>
    </linearGradient>
  </defs>
  <path d="M0,160L60,170.7C120,181,240,203,360,197.3C480,192,600,160,720,133.3C840,107,960,85,1080,101.3C1200,117,1320,171,1380,197.3L1440,224L1440,320L1380,320C1320,320,1200,320,1080,320C960,320,840,320,720,320C600,320,480,320,360,320C240,320,120,320,60,320L0,320Z" fill="url(#bg-gradient)"/>
  <circle cx="1200" cy="60" r="48" fill="#00e1ff" fill-opacity="0.08"/>
  <circle cx="200" cy="220" r="32" fill="#00e1ff" fill-opacity="0.10"/>
  <rect x="900" y="200" width="120" height="24" rx="12" fill="#00e1ff" fill-opacity="0.07"/>
</svg>
